<svg id="Layer_1" data-name="Layer 1" xmlns="http://www.w3.org/2000/svg" viewBox="0 0 120.02 120.02"><defs><style>.cls-1{fill:#fff;}</style></defs><title>instagram-2935404</title><g id="Layer_1-2" data-name="Layer_1"><g id="_2744492862240" data-name=" 2744492862240"><path class="cls-1" d="M92.08,50.3h69.57a25.35,25.35,0,0,1,25.22,25.23v69.56a25.33,25.33,0,0,1-25.22,25.23H92.08a25.33,25.33,0,0,1-25.22-25.23V75.53A25.35,25.35,0,0,1,92.08,50.3ZM163.54,70a2.5,2.5,0,1,1,0,5,2.5,2.5,0,0,1,0-5Zm-36.68,6.83a33.51,33.51,0,1,1-33.5,33.5A33.5,33.5,0,0,1,126.86,76.81Zm28.72,33.5A28.72,28.72,0,1,0,126.86,139,28.73,28.73,0,0,0,155.58,110.31Zm6.07-55.19H92.08A20.43,20.43,0,0,0,71.67,75.53v69.56A20.43,20.43,0,0,0,92.08,165.5h69.57a20.43,20.43,0,0,0,20.41-20.41V75.53a20.43,20.43,0,0,0-20.41-20.41Z" transform="translate(-66.86 -50.3)"/></g></g></svg>